<svg width="134" height="37" viewBox="0 0 134 37" fill="none" xmlns="http://www.w3.org/2000/svg">
<path d="M14.2496 36.45C12.0829 36.45 10.1329 36.2333 8.39961 35.8C6.69961 35.4 5.23294 34.7833 3.99961 33.95C2.79961 33.0833 1.84961 32.0167 1.14961 30.75C0.482943 29.45 0.0996095 27.9667 -0.000390552 26.3L6.29961 24.25C6.36628 25.75 6.73294 27 7.39961 28C8.09961 29 9.08294 29.7333 10.3496 30.2C11.6163 30.6667 13.0329 30.9 14.5996 30.9C16.0996 30.9 17.3663 30.7167 18.3996 30.35C19.4329 29.9833 20.2163 29.5 20.7496 28.9C21.2829 28.2667 21.5496 27.5833 21.5496 26.85C21.5496 25.9833 21.2163 25.2833 20.5496 24.75C19.8829 24.2167 18.9663 23.7667 17.7996 23.4C16.6663 23.0333 15.3663 22.6833 13.8996 22.35C12.2663 21.9833 10.6496 21.5667 9.04961 21.1C7.48294 20.6333 6.04961 20.0333 4.74961 19.3C3.48294 18.5667 2.46628 17.6167 1.69961 16.45C0.966276 15.2833 0.59961 13.8167 0.59961 12.05C0.59961 10.0167 1.09961 8.26666 2.09961 6.8C3.13294 5.3 4.63294 4.13333 6.59961 3.3C8.56628 2.46667 10.9329 2.05 13.6996 2.05C16.4996 2.05 18.8829 2.46667 20.8496 3.3C22.8496 4.1 24.3996 5.25 25.4996 6.75C26.5996 8.21667 27.1996 9.96667 27.2996 12L20.7996 13.8C20.7996 12.7667 20.6329 11.8667 20.2996 11.1C19.9663 10.3333 19.4996 9.7 18.8996 9.2C18.2996 8.66666 17.5496 8.26666 16.6496 8C15.7829 7.73333 14.7829 7.6 13.6496 7.6C12.3496 7.6 11.2163 7.76667 10.2496 8.1C9.31628 8.43333 8.59961 8.88333 8.09961 9.45C7.63294 10.0167 7.39961 10.6833 7.39961 11.45C7.39961 12.35 7.76628 13.1 8.49961 13.7C9.26628 14.2667 10.2663 14.7333 11.4996 15.1C12.7663 15.4667 14.1496 15.8167 15.6496 16.15C17.0829 16.45 18.5329 16.8333 19.9996 17.3C21.4996 17.7333 22.8829 18.3167 24.1496 19.05C25.4496 19.75 26.4829 20.7167 27.2496 21.95C28.0496 23.15 28.4496 24.6667 28.4496 26.5C28.4496 28.5 27.9163 30.25 26.8496 31.75C25.7829 33.25 24.1829 34.4167 22.0496 35.25C19.9496 36.05 17.3496 36.45 14.2496 36.45ZM46.1668 36.45C43.5335 36.45 41.2168 35.9333 39.2168 34.9C37.2168 33.8333 35.6501 32.2833 34.5168 30.25C33.3835 28.1833 32.8168 25.6167 32.8168 22.55C32.8168 19.4833 33.3835 16.9333 34.5168 14.9C35.6835 12.8667 37.2668 11.35 39.2668 10.35C41.3001 9.31667 43.6001 8.8 46.1668 8.8C48.8001 8.8 51.1168 9.31667 53.1168 10.35C55.1501 11.3833 56.7335 12.9333 57.8668 15C59.0335 17.0333 59.6168 19.5833 59.6168 22.65C59.6168 25.75 59.0168 28.3333 57.8168 30.4C56.6501 32.4333 55.0501 33.95 53.0168 34.95C51.0168 35.95 48.7335 36.45 46.1668 36.45ZM46.4168 31.1C47.7168 31.1 48.8001 30.8 49.6668 30.2C50.5668 29.6 51.2335 28.7 51.6668 27.5C52.1335 26.2667 52.3668 24.7833 52.3668 23.05C52.3668 21.2167 52.1168 19.6667 51.6168 18.4C51.1501 17.1 50.4501 16.1167 49.5168 15.45C48.5835 14.75 47.4001 14.4 45.9668 14.4C44.7335 14.4 43.6668 14.7 42.7668 15.3C41.8668 15.8667 41.1835 16.7667 40.7168 18C40.2501 19.2 40.0168 20.6833 40.0168 22.45C40.0168 25.2833 40.5835 27.4333 41.7168 28.9C42.8501 30.3667 44.4168 31.1 46.4168 31.1ZM65.2355 35.75V-1.66893e-06H72.3355V35.75H65.2355ZM88.3563 36.45C85.2896 36.45 82.9729 35.4167 81.4063 33.35C79.8729 31.25 79.1063 28.0667 79.1063 23.8V9.5H86.3063V22.9C86.3063 25.4667 86.6896 27.3833 87.4563 28.65C88.2229 29.8833 89.3896 30.5 90.9563 30.5C91.8896 30.5 92.7063 30.2667 93.4063 29.8C94.1063 29.3333 94.7063 28.6833 95.2063 27.85C95.7063 27.0167 96.0729 26.0333 96.3063 24.9C96.5729 23.7667 96.7229 22.55 96.7563 21.25V9.5H103.956V25.05V35.75H98.1563L98.1063 27.55H97.2063C96.7063 29.6167 96.0729 31.3167 95.3063 32.65C94.5729 33.95 93.6229 34.9167 92.4563 35.55C91.3229 36.15 89.9563 36.45 88.3563 36.45ZM121.56 36.45C119.793 36.45 118.193 36.2833 116.76 35.95C115.326 35.6167 114.093 35.1333 113.06 34.5C112.026 33.8667 111.193 33.1167 110.56 32.25C109.926 31.35 109.51 30.35 109.31 29.25L114.81 27C114.943 27.7333 115.31 28.4167 115.91 29.05C116.51 29.6833 117.31 30.2 118.31 30.6C119.343 30.9667 120.576 31.15 122.01 31.15C123.543 31.15 124.726 30.9333 125.56 30.5C126.393 30.0333 126.81 29.3833 126.81 28.55C126.81 27.9167 126.576 27.4167 126.11 27.05C125.643 26.6833 124.96 26.3667 124.06 26.1C123.16 25.8333 122.076 25.5833 120.81 25.35C119.576 25.05 118.31 24.7333 117.01 24.4C115.743 24.0667 114.56 23.6 113.46 23C112.393 22.4 111.51 21.6167 110.81 20.65C110.143 19.65 109.81 18.3833 109.81 16.85C109.81 15.25 110.243 13.85 111.11 12.65C111.976 11.45 113.243 10.5167 114.91 9.85C116.576 9.15 118.61 8.8 121.01 8.8C123.176 8.8 125.076 9.1 126.71 9.7C128.343 10.2667 129.676 11.1 130.71 12.2C131.776 13.2667 132.493 14.55 132.86 16.05L127.01 18C126.876 17.2 126.543 16.5 126.01 15.9C125.51 15.3 124.826 14.85 123.96 14.55C123.126 14.25 122.143 14.1 121.01 14.1C119.576 14.1 118.46 14.3333 117.66 14.8C116.893 15.2667 116.51 15.8833 116.51 16.65C116.51 17.2833 116.76 17.8 117.26 18.2C117.793 18.6 118.526 18.9333 119.46 19.2C120.393 19.4333 121.493 19.6833 122.76 19.95C124.093 20.2167 125.393 20.5333 126.66 20.9C127.926 21.2333 129.06 21.6833 130.06 22.25C131.093 22.8167 131.91 23.5667 132.51 24.5C133.11 25.4333 133.41 26.6333 133.41 28.1C133.41 29.8333 132.943 31.3333 132.01 32.6C131.076 33.8333 129.726 34.7833 127.96 35.45C126.193 36.1167 124.06 36.45 121.56 36.45Z" fill="#00373E"/>
</svg>
