<svg width="108" height="30" viewBox="0 0 108 30" fill="none" xmlns="http://www.w3.org/2000/svg">
<path d="M11.3993 29.1601C9.66596 29.1601 8.10596 28.9868 6.7193 28.6401C5.3593 28.3201 4.18596 27.8268 3.1993 27.1601C2.2393 26.4668 1.4793 25.6134 0.919297 24.6001C0.385964 23.5601 0.079297 22.3734 -0.000703067 21.0401L5.0393 19.4001C5.09263 20.6001 5.38596 21.6001 5.9193 22.4001C6.4793 23.2001 7.26596 23.7868 8.2793 24.1601C9.29263 24.5334 10.426 24.7201 11.6793 24.7201C12.8793 24.7201 13.8926 24.5734 14.7193 24.2801C15.546 23.9868 16.1726 23.6001 16.5993 23.1201C17.026 22.6134 17.2393 22.0668 17.2393 21.4801C17.2393 20.7868 16.9726 20.2268 16.4393 19.8001C15.906 19.3734 15.1726 19.0134 14.2393 18.7201C13.3326 18.4268 12.2926 18.1468 11.1193 17.8801C9.81263 17.5868 8.5193 17.2534 7.2393 16.8801C5.98596 16.5068 4.8393 16.0268 3.7993 15.4401C2.78596 14.8534 1.97263 14.0934 1.3593 13.1601C0.77263 12.2268 0.479297 11.0534 0.479297 9.6401C0.479297 8.01343 0.879297 6.61343 1.6793 5.4401C2.50596 4.2401 3.70596 3.30676 5.2793 2.6401C6.85263 1.97343 8.74596 1.6401 10.9593 1.6401C13.1993 1.6401 15.106 1.97343 16.6793 2.6401C18.2793 3.2801 19.5193 4.2001 20.3993 5.4001C21.2793 6.57343 21.7593 7.97343 21.8393 9.6001L16.6393 11.0401C16.6393 10.2134 16.506 9.49343 16.2393 8.8801C15.9726 8.26676 15.5993 7.7601 15.1193 7.3601C14.6393 6.93343 14.0393 6.61343 13.3193 6.4001C12.626 6.18676 11.826 6.0801 10.9193 6.0801C9.8793 6.0801 8.97263 6.21343 8.1993 6.4801C7.45263 6.74676 6.8793 7.10676 6.4793 7.5601C6.10596 8.01343 5.9193 8.54676 5.9193 9.1601C5.9193 9.8801 6.21263 10.4801 6.7993 10.9601C7.41263 11.4134 8.21263 11.7868 9.1993 12.0801C10.2126 12.3734 11.3193 12.6534 12.5193 12.9201C13.666 13.1601 14.826 13.4668 15.9993 13.8401C17.1993 14.1868 18.306 14.6534 19.3193 15.2401C20.3593 15.8001 21.186 16.5734 21.7993 17.5601C22.4393 18.5201 22.7593 19.7334 22.7593 21.2001C22.7593 22.8001 22.3326 24.2001 21.4793 25.4001C20.626 26.6001 19.346 27.5334 17.6393 28.2001C15.9593 28.8401 13.8793 29.1601 11.3993 29.1601ZM37.033 29.1601C34.9264 29.1601 33.073 28.7468 31.473 27.9201C29.873 27.0668 28.6197 25.8268 27.713 24.2001C26.8064 22.5468 26.353 20.4934 26.353 18.0401C26.353 15.5868 26.8064 13.5468 27.713 11.9201C28.6464 10.2934 29.913 9.0801 31.513 8.2801C33.1397 7.45343 34.9797 7.0401 37.033 7.0401C39.1397 7.0401 40.993 7.45343 42.593 8.2801C44.2197 9.10676 45.4864 10.3468 46.393 12.0001C47.3264 13.6268 47.793 15.6668 47.793 18.1201C47.793 20.6001 47.313 22.6668 46.353 24.3201C45.4197 25.9468 44.1397 27.1601 42.513 27.9601C40.913 28.7601 39.0864 29.1601 37.033 29.1601ZM37.233 24.8801C38.273 24.8801 39.1397 24.6401 39.833 24.1601C40.553 23.6801 41.0864 22.9601 41.433 22.0001C41.8064 21.0134 41.993 19.8268 41.993 18.4401C41.993 16.9734 41.793 15.7334 41.393 14.7201C41.0197 13.6801 40.4597 12.8934 39.713 12.3601C38.9664 11.8001 38.0197 11.5201 36.873 11.5201C35.8864 11.5201 35.033 11.7601 34.313 12.2401C33.593 12.6934 33.0464 13.4134 32.673 14.4001C32.2997 15.3601 32.113 16.5468 32.113 17.9601C32.113 20.2268 32.5664 21.9468 33.473 23.1201C34.3797 24.2934 35.633 24.8801 37.233 24.8801ZM52.388 28.6001V9.63211e-05H58.068V28.6001H52.388ZM70.9846 29.1601C68.5313 29.1601 66.6779 28.3334 65.4246 26.6801C64.1979 25.0001 63.5846 22.4534 63.5846 19.0401V7.6001H69.3446V18.3201C69.3446 20.3734 69.6513 21.9068 70.2646 22.9201C70.8779 23.9068 71.8113 24.4001 73.0646 24.4001C73.8113 24.4001 74.4646 24.2134 75.0246 23.8401C75.5846 23.4668 76.0646 22.9468 76.4646 22.2801C76.8646 21.6134 77.1579 20.8268 77.3446 19.9201C77.5579 19.0134 77.6779 18.0401 77.7046 17.0001V7.6001H83.4646V20.0401V28.6001H78.8246L78.7846 22.0401H78.0646C77.6646 23.6934 77.1579 25.0534 76.5446 26.1201C75.9579 27.1601 75.1979 27.9334 74.2646 28.4401C73.3579 28.9201 72.2646 29.1601 70.9846 29.1601ZM97.6474 29.1601C96.2341 29.1601 94.9541 29.0268 93.8074 28.7601C92.6608 28.4934 91.6741 28.1068 90.8474 27.6001C90.0208 27.0934 89.3541 26.4934 88.8474 25.8001C88.3408 25.0801 88.0074 24.2801 87.8474 23.4001L92.2474 21.6001C92.3541 22.1868 92.6474 22.7334 93.1274 23.2401C93.6074 23.7468 94.2474 24.1601 95.0474 24.4801C95.8741 24.7734 96.8608 24.9201 98.0074 24.9201C99.2341 24.9201 100.181 24.7468 100.847 24.4001C101.514 24.0268 101.847 23.5068 101.847 22.8401C101.847 22.3334 101.661 21.9334 101.287 21.6401C100.914 21.3468 100.367 21.0934 99.6474 20.8801C98.9274 20.6668 98.0608 20.4668 97.0474 20.2801C96.0608 20.0401 95.0474 19.7868 94.0074 19.5201C92.9941 19.2534 92.0474 18.8801 91.1674 18.4001C90.3141 17.9201 89.6074 17.2934 89.0474 16.5201C88.5141 15.7201 88.2474 14.7068 88.2474 13.4801C88.2474 12.2001 88.5941 11.0801 89.2874 10.1201C89.9808 9.1601 90.9941 8.41343 92.3274 7.8801C93.6608 7.3201 95.2874 7.0401 97.2074 7.0401C98.9408 7.0401 100.461 7.2801 101.767 7.7601C103.074 8.21343 104.141 8.8801 104.967 9.7601C105.821 10.6134 106.394 11.6401 106.687 12.8401L102.007 14.4001C101.901 13.7601 101.634 13.2001 101.207 12.7201C100.807 12.2401 100.261 11.8801 99.5674 11.6401C98.9008 11.4001 98.1141 11.2801 97.2074 11.2801C96.0608 11.2801 95.1674 11.4668 94.5274 11.8401C93.9141 12.2134 93.6074 12.7068 93.6074 13.3201C93.6074 13.8268 93.8074 14.2401 94.2074 14.5601C94.6341 14.8801 95.2208 15.1468 95.9674 15.3601C96.7141 15.5468 97.5941 15.7468 98.6074 15.9601C99.6741 16.1734 100.714 16.4268 101.727 16.7201C102.741 16.9868 103.647 17.3468 104.447 17.8001C105.274 18.2534 105.927 18.8534 106.407 19.6001C106.887 20.3468 107.127 21.3068 107.127 22.4801C107.127 23.8668 106.754 25.0668 106.007 26.0801C105.261 27.0668 104.181 27.8268 102.767 28.3601C101.354 28.8934 99.6474 29.1601 97.6474 29.1601Z" fill="#00373E"/>
</svg>
