<svg width="29" height="35" viewBox="0 0 29 35" fill="none" xmlns="http://www.w3.org/2000/svg">
<path d="M14.2496 34.4C12.0829 34.4 10.1329 34.1833 8.39961 33.75C6.69961 33.35 5.23294 32.7333 3.99961 31.9C2.79961 31.0333 1.84961 29.9667 1.14961 28.7C0.482943 27.4 0.0996095 25.9167 -0.000390552 24.25L6.29961 22.2C6.36628 23.7 6.73294 24.95 7.39961 25.95C8.09961 26.95 9.08294 27.6833 10.3496 28.15C11.6163 28.6167 13.0329 28.85 14.5996 28.85C16.0996 28.85 17.3663 28.6667 18.3996 28.3C19.4329 27.9333 20.2163 27.45 20.7496 26.85C21.2829 26.2167 21.5496 25.5333 21.5496 24.8C21.5496 23.9333 21.2163 23.2333 20.5496 22.7C19.8829 22.1667 18.9663 21.7167 17.7996 21.35C16.6663 20.9833 15.3663 20.6333 13.8996 20.3C12.2663 19.9333 10.6496 19.5167 9.04961 19.05C7.48294 18.5833 6.04961 17.9833 4.74961 17.25C3.48294 16.5167 2.46628 15.5667 1.69961 14.4C0.966276 13.2333 0.59961 11.7667 0.59961 10C0.59961 7.96668 1.09961 6.21668 2.09961 4.75001C3.13294 3.25001 4.63294 2.08334 6.59961 1.25001C8.56628 0.416677 10.9329 1.09673e-05 13.6996 1.09673e-05C16.4996 1.09673e-05 18.8829 0.416677 20.8496 1.25001C22.8496 2.05001 24.3996 3.20001 25.4996 4.70001C26.5996 6.16668 27.1996 7.91668 27.2996 9.95001L20.7996 11.75C20.7996 10.7167 20.6329 9.81668 20.2996 9.05001C19.9663 8.28334 19.4996 7.65001 18.8996 7.15001C18.2996 6.61668 17.5496 6.21668 16.6496 5.95001C15.7829 5.68334 14.7829 5.55001 13.6496 5.55001C12.3496 5.55001 11.2163 5.71668 10.2496 6.05001C9.31628 6.38334 8.59961 6.83334 8.09961 7.40001C7.63294 7.96668 7.39961 8.63334 7.39961 9.40001C7.39961 10.3 7.76628 11.05 8.49961 11.65C9.26628 12.2167 10.2663 12.6833 11.4996 13.05C12.7663 13.4167 14.1496 13.7667 15.6496 14.1C17.0829 14.4 18.5329 14.7833 19.9996 15.25C21.4996 15.6833 22.8829 16.2667 24.1496 17C25.4496 17.7 26.4829 18.6667 27.2496 19.9C28.0496 21.1 28.4496 22.6167 28.4496 24.45C28.4496 26.45 27.9163 28.2 26.8496 29.7C25.7829 31.2 24.1829 32.3667 22.0496 33.2C19.9496 34 17.3496 34.4 14.2496 34.4Z" fill="#00373E"/>
</svg>
